<?xml version="1.0" encoding="utf-8"?>
<!-- Generator: Adobe Illustrator 26.2.1, SVG Export Plug-In . SVG Version: 6.00 Build 0)  -->
<svg version="1.1" id="Livello_1" xmlns="http://www.w3.org/2000/svg" xmlns:xlink="http://www.w3.org/1999/xlink" x="0px" y="0px"
	 viewBox="0 0 415.5 300.1" style="enable-background:new 0 0 415.5 300.1;" xml:space="preserve">
<style type="text/css">
	.st0{fill:#1E577E;}
	.st1{fill:#EA2229;}
</style>
<g>
	<path class="st0" d="M187.4,44.8l0.1,0.2"/>
	<path class="st0" d="M284.3,164.2L208.2,0l-20.8,44.8l53.5,119.4H284.3z"/>
	<path class="st0" d="M258.3,203.1c5.1,11.3,10.2,22.7,15.2,34h0.5l28.2,63h45.2l-45-97H258.3z"/>
	<polygon class="st0" points="114.1,164.6 146.9,92.7 179.4,164.6 223.2,164.6 146.9,0 70.5,164.6 	"/>
	<polygon class="st0" points="52.6,203.3 7.7,300.1 52.8,300.1 81,237.1 96.4,203.3 	"/>
	<polygon class="st0" points="241.2,203.3 197,203.3 212.3,237.1 212.7,237.1 241,300.1 286.1,300.1 	"/>
	<polygon class="st1" points="346,164.4 269.7,0 247,49 300.7,164.4 	"/>
	<polygon class="st1" points="318.8,203.4 363.8,300.1 409,300.1 364.1,203.4 	"/>
	<polyline class="st0" points="45.3,219.1 75.5,153.8 117.8,156.6 94,208.7 	"/>
	<polyline class="st0" points="241,300.1 172.9,150 215,146.9 286.1,300.1 	"/>
	<polyline class="st0" points="302.2,300.1 218.3,113.7 258.3,108.1 347.4,300.1 	"/>
	<polyline class="st1" points="336,240.4 287,134.9 330.3,130.5 390.8,261.1 	"/>
</g>
</svg>
